<?xml version="1.0" encoding="iso-8859-1"?>
<!-- Generator: Adobe Illustrator 19.0.0, SVG Export Plug-In . SVG Version: 6.00 Build 0)  -->
<svg version="1.1" id="Capa_1" xmlns="http://www.w3.org/2000/svg" xmlns:xlink="http://www.w3.org/1999/xlink" x="0px" y="0px"
	 viewBox="0 0 58 58" style="enable-background:new 0 0 58 58;" xml:space="preserve">
<rect style="fill:#ECF0F1;" width="58" height="58" rx="2"/>
<rect style="fill:#546A79;" width="58" height="12" rx="2"/>
<rect style="fill:#546A79;" width="58" height="2" y="10"/>
<circle style="fill:#ED7161;" cx="6" cy="6" r="3"/>
<circle style="fill:#F0C419;" cx="15" cy="6" r="3"/>
<circle style="fill:#4FBA6F;" cx="24" cy="6" r="3"/>
<rect x="5" y="17" style="fill:#FFF844;" width="48" height="36"/>
<g>
	<path style="fill:#333;" d="M30,29h9c0.552,0,1-0.448,1-1s-0.448-1-1-1h-9c-0.552,0-1,0.448-1,1S29.448,29,30,29z"/>
	<path style="fill:#333;" d="M48,37H30c-0.552,0-1,0.448-1,1s0.448,1,1,1h18c0.552,0,1-0.448,1-1S48.552,37,48,37z"/>
	<path style="fill:#333;" d="M30,34h18c0.552,0,1-0.448,1-1s-0.448-1-1-1H30c-0.552,0-1,0.448-1,1S29.448,34,30,34z"/>
	<path style="fill:#333;" d="M48,42H30c-0.552,0-1,0.448-1,1s0.448,1,1,1h18c0.552,0,1-0.448,1-1S48.552,42,48,42z"/>
</g>
<rect x="9" y="27" style="fill:#fff;" width="18" height="17"/>
<g>
</g>
<g>
</g>
<g>
</g>
<g>
</g>
<g>
</g>
<g>
</g>
<g>
</g>
<g>
</g>
<g>
</g>
<g>
</g>
<g>
</g>
<g>
</g>
<g>
</g>
<g>
</g>
<g>
</g>
</svg>
